<svg id="Layer_1" data-name="Layer 1" xmlns="http://www.w3.org/2000/svg" viewBox="0 0 32 32"><defs><style>.cls-1{fill:#231f20;}.cls-2{fill:#fff;}</style></defs><title>favicon</title><rect class="cls-1" width="32" height="32" rx="3"/><path class="cls-2" d="M21.28,15.73a19.53,19.53,0,0,0,8.11,9.51l-.58.63-2.34,2.51a.21.21,0,0,1-.28.06h0c-1.9-.82-3.81-1.6-5.76-2.28a42.14,42.14,0,0,0-5.52-1.52,28.75,28.75,0,0,0-4.33-.52,27.08,27.08,0,0,0-5.09.28l-.94.17H4.37l.07-.13L6.92,21a.67.67,0,0,1,.15-.14c1.32-.79,2.64-1.57,3.94-2.37,1-.6,1.91-1.21,2.85-1.84,2.3-1.53,4.59-3.08,6.89-4.63.07-.05.12-.09.07-.18s0-.23-.19-.21H12.4l2.31,3.83h-.14L8.93,13.86a.46.46,0,0,1-.23-.16A31.64,31.64,0,0,0,5.58,9.81c-1-1-1.94-2.05-2.91-3.06-.1-.1-.07-.16,0-.25l2-2.82c.14-.19.14-.19.35-.06a37.26,37.26,0,0,0,5,2.54,29,29,0,0,0,4.81,1.55,23.94,23.94,0,0,0,4,.56c.64,0,1.28.07,1.93.06A26.25,26.25,0,0,0,25,7.93l1-.2h.15a.17.17,0,0,1,0,.1c-.13.32-.29.63-.41,1a3.38,3.38,0,0,1-1.06,1.31l-3,2.64-4.17,3.65c-.92.8-1.84,1.62-2.78,2.41-.52.44-1.07.85-1.6,1.27l-.21.17L19.1,21c-.18-.27-.33-.51-.49-.74s-.19-.29,0-.59l2.51-3.75Z"/></svg>