<?xml version="1.0" encoding="utf-8"?>
<!-- Generator: Adobe Illustrator 24.0.2, SVG Export Plug-In . SVG Version: 6.00 Build 0)  -->
<svg version="1.1" id="Layer_1" xmlns="http://www.w3.org/2000/svg" xmlns:xlink="http://www.w3.org/1999/xlink" x="0px" y="0px"
	 viewBox="0 0 130.6 71.2" style="enable-background:new 0 0 130.6 71.2;" xml:space="preserve">
<style type="text/css">
	.st0{fill:#231F20;}
	.st1{enable-background:new    ;}
</style>
<title>zef_logo_black</title>
<path class="st0" d="M51.5,33.7C55.8,45.2,63.9,53.4,73.9,60c-0.6,0.6-1.1,1.2-1.6,1.7c-2.2,2.3-4.3,4.6-6.5,6.9
	c-0.2,0.3-0.5,0.3-0.8,0.2c-5.2-2.2-10.5-4.4-15.9-6.3c-5-1.8-10-3.2-15.2-4.2c-4-0.8-8-1.3-12-1.4c-4.7-0.2-9.4,0.1-14,0.8
	c-0.9,0.1-1.7,0.3-2.6,0.5l-0.5,0.1C5,58.1,5,57.9,5.1,57.9l6.8-9.4c0.1-0.2,0.3-0.3,0.4-0.4c3.6-2.2,7.3-4.3,10.9-6.6
	c2.7-1.6,5.3-3.3,7.9-5.1c6.3-4.2,12.7-8.5,19-12.8c0.2-0.1,0.3-0.2,0.2-0.5s-0.1-0.6-0.5-0.6H27l6.4,10.6c-0.1,0-0.3,0-0.4,0
	l-15.5-4.5c-0.3-0.1-0.5-0.2-0.6-0.5c-2.6-3.8-5.5-7.4-8.6-10.8C5.6,14.5,2.9,11.8,0.2,9c-0.3-0.3-0.2-0.4,0-0.7
	c1.9-2.6,3.8-5.2,5.7-7.8C6.2,0,6.2,0,6.8,0.3c4.4,2.7,9,5,13.8,7c4.3,1.8,8.7,3.2,13.3,4.3c3.6,0.8,7.2,1.3,10.9,1.6
	c1.8,0.1,3.6,0.2,5.3,0.2c3.9,0,7.8-0.4,11.7-1.1l2.9-0.6h0.4c0,0.1,0,0.2-0.1,0.3c-0.4,0.9-0.8,1.8-1.1,2.7
	c-0.7,1.4-1.7,2.7-2.9,3.6c-2.8,2.4-5.5,4.9-8.2,7.3l-11.5,10c-2.5,2.2-5.1,4.5-7.7,6.7c-1.4,1.2-2.9,2.3-4.4,3.5l-0.6,0.5l17,2.2
	c-0.5-0.8-0.9-1.4-1.3-2c-0.5-0.8-0.5-0.8,0-1.6l6.9-10.4L51.5,33.7z"/>
<g class="st1">
	<path class="st0" d="M96.7,19.2c0,0.3,0,0.5,0,0.6c0,0.1,0,0.3-0.1,0.4c0,0.1,0,0.2,0,0.4c0,0.1,0,0.3,0.1,0.6
		c-0.8,1.3-1.8,2.2-2.8,2.7c-1.1,0.5-2.2,0.8-3.5,1.1c-1.3,0.2-2.5,0.4-3.8,0.7c-1.3,0.2-2.6,0.7-3.9,1.5c-0.5-0.2-1-0.2-1.4,0
		c-0.4,0.2-1,0.3-1.8,0.2c-0.2,0.2-0.5,0.4-0.9,0.5c-0.4,0.1-0.7,0.2-1.1,0.3c0.2,0.4,0.2,0.7,0.2,1.1c0,0.4,0,0.7,0.1,0.9
		c1.4,0.1,2.9,0.1,4.5-0.1c1.7-0.2,3.3-0.3,4.9-0.3c0,0.2,0,0.3-0.1,0.4c-0.1,0.1-0.1,0.2-0.1,0.3c0.3,0.2,0.5,0.4,0.8,0.7
		c0.3,0.3,0.5,0.6,0.8,0.8c0.3,0.3,0.6,0.5,0.8,0.7s0.6,0.2,1,0.2c0.2,0.3,0.3,0.7,0.3,1c0.1,0.4,0,0.8-0.1,1.1
		c-0.6,0.4-1.3,0.9-1.9,1.3c-0.6,0.4-1.3,0.8-2,1.2c-0.7,0.4-1.4,0.6-2.2,0.8c-0.8,0.2-1.6,0.3-2.5,0.3c-0.2,0-0.3,0-0.4,0
		c-0.1,0-0.2-0.1-0.4-0.2c-0.3,0.2-0.8,0.3-1.3,0.2c-0.6-0.1-1,0-1.3,0.2c-0.4-0.2-0.9-0.3-1.6-0.3c-0.6,0-1.1,0-1.6-0.2
		c-0.6,0.8-1.2,1.7-1.7,2.6c-0.5,0.9-1,1.9-1.3,3c1.3,0.2,2.4,0.3,3.3,0.2c0.9,0,1.7-0.1,2.5-0.2c0.8-0.1,1.6-0.2,2.4-0.3
		c0.8-0.1,1.9-0.1,3.1-0.1c0.8-0.4,1.7-0.7,2.8-0.8c1.1-0.1,2.1-0.4,3-0.7c0.3,0.1,0.6,0.3,0.8,0.6s0.5,0.6,0.7,0.8
		c0.2,0.3,0.4,0.5,0.7,0.7c0.2,0.2,0.5,0.3,0.9,0.2c0.2,0.2,0.3,0.3,0.3,0.6c0.1,0.2,0.1,0.4,0.1,0.6c0,0.2,0.1,0.4,0.2,0.5
		c0.1,0.1,0.3,0.2,0.5,0.1c-0.6,1.3-1.3,2.3-2,3c-0.8,0.7-1.6,1.2-2.6,1.6c-1,0.4-2.1,0.6-3.3,0.8c-1.2,0.2-2.5,0.4-4,0.7
		c-0.4,0.1-0.6,0.1-0.9,0c-0.2-0.1-0.5-0.1-0.8-0.1c-0.9,0.2-2,0.4-3.2,0.5C76,53,74.7,53,73.4,53c-1.3,0-2.5-0.2-3.7-0.5
		s-2.1-0.8-2.9-1.6c-0.3-0.3-0.5-0.6-0.6-1c-0.1-0.4-0.4-0.7-0.8-0.8c0-0.5-0.1-1.1-0.2-1.7c-0.1-0.6-0.2-1.3-0.4-2
		c-0.1-0.7-0.2-1.4-0.3-2c-0.1-0.7,0-1.3,0.1-1.8c0.1-0.6,0.4-1.1,0.7-1.6c0.4-0.5,0.5-1,0.4-1.5c0.2,0,0.3-0.1,0.4-0.3
		c0-0.2,0.2-0.2,0.5-0.2c0.2-0.7,0.5-1.4,0.8-2c0.3-0.6,0.6-1.2,0.8-1.8s0.6-1.2,0.9-1.8c0.3-0.6,0.6-1.3,0.8-2
		c-0.5-0.5-0.9-1.1-1.2-1.7c-0.3-0.6-0.4-1.2-0.6-1.8c-0.1-0.6-0.2-1.2-0.3-1.9c-0.1-0.6-0.2-1.3-0.4-2c0.4-0.6,0.9-1.1,1.4-1.4
		c0.6-0.4,1.2-0.7,1.8-0.9c0.7-0.2,1.4-0.4,2.2-0.6c0.8-0.2,1.6-0.3,2.5-0.5c1.6-0.5,3-0.9,4.2-1.2c1.2-0.3,2.4-0.5,3.6-0.7
		c1.2-0.2,2.4-0.3,3.7-0.5c1.3-0.2,2.8-0.4,4.4-0.7c0.4,0.4,0.7,0.5,1,0.5c0.2-0.4,0.3-0.5,0.6-0.3c0.2,0.1,0.3,0,0.3-0.3
		c0.4,0.7,0.9,1.2,1.5,1.7C95.3,18.5,95.9,18.9,96.7,19.2z"/>
	<path class="st0" d="M103.5,50.2c-0.2,1.3-0.9,2.2-2,2.8c-0.5,0-0.9,0-1.1-0.1c-0.3-0.1-0.5-0.2-0.8-0.3c-0.4-0.2-0.7-0.3-0.9-0.3
		L98,51.9c-0.1-0.2-0.2-0.4-0.3-0.6c-0.1-0.2-0.3-0.4-0.4-0.6c-0.3-0.4-0.6-0.9-0.9-1.5c-0.2-1.1-0.3-2.1-0.1-2.8
		c0.2-0.8,0.4-1.5,0.6-2.3c0.1-0.2,0.2-0.5,0.2-0.7c0.1-0.3,0.2-0.5,0.2-0.7c-1-0.5-1.8-1.3-2.3-2.3c-0.5-1-0.8-2-0.9-2.9
		c0.1-0.7,0.3-1.3,0.6-1.8c0.3-0.4,0.7-0.8,1.1-1.1c0.4-0.3,0.8-0.5,1.3-0.6c0.4-0.2,0.9-0.3,1.3-0.4l0.8,0.3
		c0.4,0.4,0.7,0.6,1.1,0.8c0.3-0.1,0.5-0.3,0.6-0.6c0.1-0.3,0.2-0.5,0.3-0.8c0.1-0.4,0.2-0.7,0.4-1.1c0.1-0.4,0.3-0.7,0.5-1.1
		c0-0.5,0-1,0.2-1.4c-0.3-0.2-0.6-0.3-0.9-0.4c-0.1,0-0.3,0-0.6-0.1c-0.5-0.4-0.8-0.7-1-0.9c-0.2-0.3-0.3-0.5-0.5-0.7
		c-0.2-0.5-0.5-0.9-0.9-1.2l-0.6-0.4l0.3-0.6c0.1-0.1,0.1-0.2,0.1-0.3s-0.1-0.3-0.2-0.5c-0.1-0.4-0.1-0.7,0-0.9l0.1-0.6
		c0.3-0.4,0.5-0.7,0.5-0.7l0.5-0.5c0.8-0.2,1.6-0.4,2.3-0.7c0.8-0.3,1.5-0.5,2.3-0.8c0.7-0.2,1.5-0.5,2.3-0.7
		c0.8-0.3,1.5-0.5,2.3-0.7c0.3-0.2,0.6-0.3,0.9-0.4c0.3-0.1,0.6-0.1,0.9-0.1c0.2,0,0.4-0.1,0.6-0.1c0.2,0,0.3-0.1,0.4-0.2
		c0.5-0.2,1-0.3,1.6-0.5c1-0.3,2.3-0.6,3.9-0.9c1.6-0.3,3.4-0.6,5.4-0.8l1-0.1c0.2,0,0.4,0,0.6,0c0.2,0,0.4,0,0.6,0
		c1.8,0,2.9,0.5,3.3,1.6c0.4,0.2,0.7,0.4,0.9,0.6c0.3,0.2,0.5,0.5,0.8,0.7c0.1,0.2,0.2,0.3,0.4,0.4c0.1,0.1,0.2,0.2,0.3,0.2
		c0.7,1,0.9,1.9,0.6,2.7c-0.4,0.5-0.8,0.8-1.3,0.9l-0.6,0.4c-0.4,0-0.8-0.1-1-0.1c-0.2,0-0.4,0-0.7,0c-1,0-2.1,0.1-3.4,0.2
		s-2.6,0.3-4,0.5c-1.3,0.2-2.6,0.5-3.9,0.8c-1.3,0.3-2.3,0.6-3.3,1l-1.1,0.5c-0.3,0.4-0.4,0.8-0.5,1c0,0.3-0.1,0.5-0.1,0.7
		c0,0.2-0.1,0.3-0.1,0.5c0,0.2,0,0.3-0.1,0.5c-0.7,0.8-1,1.8-1,2.9c-0.3,0.5-0.5,0.8-0.5,1c-0.1,0.2-0.1,0.5,0,0.8
		c0.7,0.3,1.4,0.4,2.1,0.4c0.7-0.1,1.3-0.2,2-0.3c0.9-0.2,1.8-0.3,2.8-0.4c1-0.1,1.9-0.2,3-0.2h1.9l-0.5,0.5l0.3,0.8
		c0.2,0.1,0.4,0.2,0.5,0.2c0.1,0,0.2,0.1,0.3,0.2l0.3,0.5c0.2,0.1,0.3,0.2,0.4,0.4c0.1,0.2,0.2,0.5,0.3,0.9l-2.4,3.4l-0.8,0.2
		c-0.7,0-1.3,0-1.8,0.2c-0.3,0.1-0.5,0.1-0.8,0.2c-0.3,0.1-0.6,0.1-0.9,0.1c-0.8,0.2-1.4,0.3-2,0.4c-0.5,0.1-1.1,0.2-1.6,0.2
		c-0.7,0.1-1.4,0.2-2.1,0.3c-0.7,0.1-1.3,0.3-1.9,0.6c-0.4,0-0.7,0-0.8,0c-0.3,0-0.6,0-1,0.1c-0.3,0.1-0.6,0.2-0.9,0.3
		c-0.2,0.2-0.3,0.3-0.4,0.5c-0.1,0.2-0.2,0.4-0.2,0.6c-0.2,0.5-0.4,1-0.6,1.3v0.9c-0.3,0.4-0.5,0.7-0.6,0.9
		c-0.1,0.2-0.1,0.4-0.2,0.6c-0.1,0.1-0.1,0.2-0.2,0.3c0,0.1-0.1,0.2-0.1,0.3C103.5,48.8,103.6,49.5,103.5,50.2z"/>
</g>
</svg>
