<?xml version="1.0" encoding="UTF-8" standalone="no"?>
<!DOCTYPE svg PUBLIC "-//W3C//DTD SVG 1.1//EN"
 "http://www.w3.org/Graphics/SVG/1.1/DTD/svg11.dtd">
<!-- Generated by graphviz version 3.0.0 (0)
 -->
<!-- Title: G Pages: 1 -->
<svg width="2427pt" height="332pt"
 viewBox="0.00 0.00 2427.48 332.00" xmlns="http://www.w3.org/2000/svg" xmlns:xlink="http://www.w3.org/1999/xlink">
<g id="graph0" class="graph" transform="scale(1 1) rotate(0) translate(4 328)">
<title>G</title>
<polygon fill="white" stroke="transparent" points="-4,4 -4,-328 2423.48,-328 2423.48,4 -4,4"/>
<!-- 97 -->
<g id="node1" class="node">
<title>97</title>
<ellipse fill="#115a63" stroke="#115a63" cx="776" cy="-162" rx="65.74" ry="18"/>
<text text-anchor="middle" x="776" y="-158.9" font-family="Times,serif" font-size="12.00">ET.Department</text>
</g>
<!-- 461 -->
<g id="node26" class="node">
<title>461</title>
<text text-anchor="middle" x="776" y="-87.5" font-family="Times,serif" font-size="10.00" fill="#777777">RT.Name</text>
</g>
<!-- 97&#45;&gt;461 -->
<g id="edge9" class="edge">
<title>97&#45;&gt;461</title>
<path fill="none" stroke="#777777" d="M776,-135.64C776,-126.49 776,-116.38 776,-108.1"/>
<ellipse fill="#777777" stroke="#777777" cx="776" cy="-139.7" rx="4" ry="4"/>
</g>
<!-- 127 -->
<g id="node2" class="node">
<title>127</title>
<ellipse fill="#115a63" stroke="#115a63" cx="166" cy="-162" rx="65.74" ry="18"/>
<text text-anchor="middle" x="166" y="-158.9" font-family="Times,serif" font-size="12.00">ET.Department</text>
</g>
<!-- 534 -->
<g id="node27" class="node">
<title>534</title>
<text text-anchor="middle" x="166" y="-87.5" font-family="Times,serif" font-size="10.00" fill="#777777">RT.Name</text>
</g>
<!-- 127&#45;&gt;534 -->
<g id="edge11" class="edge">
<title>127&#45;&gt;534</title>
<path fill="none" stroke="#777777" d="M166,-135.64C166,-126.49 166,-116.38 166,-108.1"/>
<ellipse fill="#777777" stroke="#777777" cx="166" cy="-139.7" rx="4" ry="4"/>
</g>
<!-- 135 -->
<g id="node3" class="node">
<title>135</title>
<ellipse fill="#78c25c" stroke="#78c25c" cx="2361" cy="-306" rx="58.46" ry="18"/>
<text text-anchor="middle" x="2361" y="-302.9" font-family="Times,serif" font-size="12.00">ET.Employee</text>
</g>
<!-- 542 -->
<g id="node28" class="node">
<title>542</title>
<text text-anchor="middle" x="2361" y="-231.5" font-family="Times,serif" font-size="10.00" fill="#99374f">RT.FirstName</text>
</g>
<!-- 135&#45;&gt;542 -->
<g id="edge13" class="edge">
<title>135&#45;&gt;542</title>
<path fill="none" stroke="#99374f" d="M2361,-279.64C2361,-270.49 2361,-260.38 2361,-252.1"/>
<ellipse fill="#99374f" stroke="#99374f" cx="2361" cy="-283.7" rx="4" ry="4"/>
</g>
<!-- 165 -->
<g id="node4" class="node">
<title>165</title>
<ellipse fill="#78c25c" stroke="#78c25c" cx="166" cy="-306" rx="58.46" ry="18"/>
<text text-anchor="middle" x="166" y="-302.9" font-family="Times,serif" font-size="12.00">ET.Employee</text>
</g>
<!-- 195 -->
<g id="node22" class="node">
<title>195</title>
<text text-anchor="middle" x="718" y="-231.5" font-family="Times,serif" font-size="10.00" fill="#00171f">RT.WorksFor</text>
</g>
<!-- 165&#45;&gt;195 -->
<g id="edge1" class="edge">
<title>165&#45;&gt;195</title>
<path fill="none" stroke="#00171f" d="M228.37,-298.25C314.21,-288.79 473.52,-270.66 609,-252 631.67,-248.88 656.93,-244.96 677.42,-241.68"/>
<ellipse fill="#00171f" stroke="#00171f" cx="224.27" cy="-298.7" rx="4" ry="4"/>
</g>
<!-- 247 -->
<g id="node23" class="node">
<title>247</title>
<text text-anchor="middle" x="166" y="-231.5" font-family="Times,serif" font-size="10.00" fill="#00171f">RT.WorksFor</text>
</g>
<!-- 165&#45;&gt;247 -->
<g id="edge3" class="edge">
<title>165&#45;&gt;247</title>
<path fill="none" stroke="#00171f" d="M166,-279.64C166,-270.49 166,-260.38 166,-252.1"/>
<ellipse fill="#00171f" stroke="#00171f" cx="166" cy="-283.7" rx="4" ry="4"/>
</g>
<!-- 594 -->
<g id="node29" class="node">
<title>594</title>
<text text-anchor="middle" x="53" y="-231.5" font-family="Times,serif" font-size="10.00" fill="#99374f">RT.FirstName</text>
</g>
<!-- 165&#45;&gt;594 -->
<g id="edge15" class="edge">
<title>165&#45;&gt;594</title>
<path fill="none" stroke="#99374f" d="M134.21,-285.3C117.3,-274.83 96.73,-262.09 80.51,-252.04"/>
<ellipse fill="#99374f" stroke="#99374f" cx="137.8" cy="-287.53" rx="4" ry="4"/>
</g>
<!-- 179 -->
<g id="node5" class="node">
<title>179</title>
<ellipse fill="#78c25c" stroke="#78c25c" cx="521" cy="-306" rx="58.46" ry="18"/>
<text text-anchor="middle" x="521" y="-302.9" font-family="Times,serif" font-size="12.00">ET.Employee</text>
</g>
<!-- 255 -->
<g id="node24" class="node">
<title>255</title>
<text text-anchor="middle" x="266" y="-231.5" font-family="Times,serif" font-size="10.00" fill="#00171f">RT.WorksFor</text>
</g>
<!-- 179&#45;&gt;255 -->
<g id="edge5" class="edge">
<title>179&#45;&gt;255</title>
<path fill="none" stroke="#00171f" d="M468.42,-292.38C427.06,-282.2 368.09,-267.13 317,-252 313.6,-250.99 310.08,-249.91 306.56,-248.8"/>
<ellipse fill="#00171f" stroke="#00171f" cx="472.3" cy="-293.33" rx="4" ry="4"/>
</g>
<!-- 602 -->
<g id="node30" class="node">
<title>602</title>
<text text-anchor="middle" x="474" y="-231.5" font-family="Times,serif" font-size="10.00" fill="#99374f">RT.FirstName</text>
</g>
<!-- 179&#45;&gt;602 -->
<g id="edge17" class="edge">
<title>179&#45;&gt;602</title>
<path fill="none" stroke="#99374f" d="M505.14,-281.38C498.74,-271.85 491.49,-261.05 485.6,-252.28"/>
<ellipse fill="#99374f" stroke="#99374f" cx="507.39" cy="-284.73" rx="4" ry="4"/>
</g>
<!-- 894 -->
<g id="node37" class="node">
<title>894</title>
<text text-anchor="middle" x="568" y="-231.5" font-family="Times,serif" font-size="10.00" fill="#124763">RT.Salary</text>
</g>
<!-- 179&#45;&gt;894 -->
<g id="edge31" class="edge">
<title>179&#45;&gt;894</title>
<path fill="none" stroke="#124763" d="M536.86,-281.38C543.26,-271.85 550.51,-261.05 556.4,-252.28"/>
<ellipse fill="#124763" stroke="#124763" cx="534.61" cy="-284.73" rx="4" ry="4"/>
</g>
<!-- 902 -->
<g id="node38" class="node">
<title>902</title>
<text text-anchor="middle" x="889" y="-231.5" font-family="Times,serif" font-size="10.00" fill="#402667">RT.HireDate</text>
</g>
<!-- 179&#45;&gt;902 -->
<g id="edge33" class="edge">
<title>179&#45;&gt;902</title>
<path fill="none" stroke="#402667" d="M577.48,-294.26C652.72,-279.95 783.91,-254.99 849.42,-242.53"/>
<ellipse fill="#402667" stroke="#402667" cx="573.42" cy="-295.03" rx="4" ry="4"/>
</g>
<!-- 910 -->
<g id="node39" class="node">
<title>910</title>
<text text-anchor="middle" x="1046" y="-231.5" font-family="Times,serif" font-size="10.00" fill="#604862">RT.Email</text>
</g>
<!-- 179&#45;&gt;910 -->
<g id="edge35" class="edge">
<title>179&#45;&gt;910</title>
<path fill="none" stroke="#604862" d="M582.72,-297.68C664.02,-287.92 811.38,-269.79 937,-252 963.17,-248.29 992.8,-243.64 1014.55,-240.14"/>
<ellipse fill="#604862" stroke="#604862" cx="578.56" cy="-298.18" rx="4" ry="4"/>
</g>
<!-- 918 -->
<g id="node40" class="node">
<title>918</title>
<text text-anchor="middle" x="369" y="-231.5" font-family="Times,serif" font-size="10.00" fill="#d3c5f9">RT.LastName</text>
</g>
<!-- 179&#45;&gt;918 -->
<g id="edge37" class="edge">
<title>179&#45;&gt;918</title>
<path fill="none" stroke="#d3c5f9" d="M482.49,-287.27C459.02,-276.46 429.17,-262.71 405.98,-252.03"/>
<ellipse fill="#d3c5f9" stroke="#d3c5f9" cx="486.24" cy="-288.99" rx="4" ry="4"/>
</g>
<!-- 187 -->
<g id="node6" class="node">
<title>187</title>
<ellipse fill="#78c25c" stroke="#78c25c" cx="1581" cy="-306" rx="58.46" ry="18"/>
<text text-anchor="middle" x="1581" y="-302.9" font-family="Times,serif" font-size="12.00">ET.Employee</text>
</g>
<!-- 263 -->
<g id="node25" class="node">
<title>263</title>
<text text-anchor="middle" x="1227" y="-231.5" font-family="Times,serif" font-size="10.00" fill="#00171f">RT.WorksFor</text>
</g>
<!-- 187&#45;&gt;263 -->
<g id="edge7" class="edge">
<title>187&#45;&gt;263</title>
<path fill="none" stroke="#00171f" d="M1525.21,-293.97C1453.62,-279.81 1331.1,-255.58 1267.69,-243.05"/>
<ellipse fill="#00171f" stroke="#00171f" cx="1529.33" cy="-294.78" rx="4" ry="4"/>
</g>
<!-- 610 -->
<g id="node31" class="node">
<title>610</title>
<text text-anchor="middle" x="1720" y="-231.5" font-family="Times,serif" font-size="10.00" fill="#124763">RT.Salary</text>
</g>
<!-- 187&#45;&gt;610 -->
<g id="edge19" class="edge">
<title>187&#45;&gt;610</title>
<path fill="none" stroke="#124763" d="M1617.56,-286.59C1639.27,-275.66 1666.55,-261.92 1687.5,-251.37"/>
<ellipse fill="#124763" stroke="#124763" cx="1613.71" cy="-288.53" rx="4" ry="4"/>
</g>
<!-- 662 -->
<g id="node32" class="node">
<title>662</title>
<text text-anchor="middle" x="1912" y="-231.5" font-family="Times,serif" font-size="10.00" fill="#402667">RT.HireDate</text>
</g>
<!-- 187&#45;&gt;662 -->
<g id="edge21" class="edge">
<title>187&#45;&gt;662</title>
<path fill="none" stroke="#402667" d="M1635.62,-293.45C1702.23,-279.36 1813.23,-255.89 1872.25,-243.41"/>
<ellipse fill="#402667" stroke="#402667" cx="1631.64" cy="-294.29" rx="4" ry="4"/>
</g>
<!-- 714 -->
<g id="node33" class="node">
<title>714</title>
<text text-anchor="middle" x="2109" y="-231.5" font-family="Times,serif" font-size="10.00" fill="#604862">RT.Email</text>
</g>
<!-- 187&#45;&gt;714 -->
<g id="edge23" class="edge">
<title>187&#45;&gt;714</title>
<path fill="none" stroke="#604862" d="M1641.79,-296.94C1754.6,-281.99 1992.62,-250.43 2077.83,-239.13"/>
<ellipse fill="#604862" stroke="#604862" cx="1637.52" cy="-297.51" rx="4" ry="4"/>
</g>
<!-- 766 -->
<g id="node34" class="node">
<title>766</title>
<text text-anchor="middle" x="1362" y="-231.5" font-family="Times,serif" font-size="10.00" fill="#604862">RT.Email</text>
</g>
<!-- 187&#45;&gt;766 -->
<g id="edge25" class="edge">
<title>187&#45;&gt;766</title>
<path fill="none" stroke="#604862" d="M1534.12,-290.02C1491.5,-276.39 1429.82,-256.68 1393.03,-244.92"/>
<ellipse fill="#604862" stroke="#604862" cx="1538.04" cy="-291.27" rx="4" ry="4"/>
</g>
<!-- 774 -->
<g id="node35" class="node">
<title>774</title>
<text text-anchor="middle" x="1477" y="-231.5" font-family="Times,serif" font-size="10.00" fill="#d3c5f9">RT.LastName</text>
</g>
<!-- 187&#45;&gt;774 -->
<g id="edge27" class="edge">
<title>187&#45;&gt;774</title>
<path fill="none" stroke="#d3c5f9" d="M1550.85,-284.71C1535.51,-274.38 1517.07,-261.97 1502.45,-252.13"/>
<ellipse fill="#d3c5f9" stroke="#d3c5f9" cx="1554.34" cy="-287.06" rx="4" ry="4"/>
</g>
<!-- 826 -->
<g id="node36" class="node">
<title>826</title>
<text text-anchor="middle" x="1581" y="-231.5" font-family="Times,serif" font-size="10.00" fill="#99374f">RT.FirstName</text>
</g>
<!-- 187&#45;&gt;826 -->
<g id="edge29" class="edge">
<title>187&#45;&gt;826</title>
<path fill="none" stroke="#99374f" d="M1581,-279.64C1581,-270.49 1581,-260.38 1581,-252.1"/>
<ellipse fill="#99374f" stroke="#99374f" cx="1581" cy="-283.7" rx="4" ry="4"/>
</g>
<!-- 276 -->
<g id="node7" class="node">
<title>276</title>
<polygon fill="#6f42b3" stroke="#6f42b3" points="822,-36 730,-36 730,0 822,0 822,-36"/>
<text text-anchor="middle" x="776" y="-21.4" font-family="Times,serif" font-size="12.00">AET.String</text>
<text text-anchor="middle" x="776" y="-8.4" font-family="Times,serif" font-size="12.00">▷&quot;Research&quot;</text>
</g>
<!-- 306 -->
<g id="node8" class="node">
<title>306</title>
<polygon fill="#6f42b3" stroke="#6f42b3" points="207,-36 125,-36 125,0 207,0 207,-36"/>
<text text-anchor="middle" x="166" y="-21.4" font-family="Times,serif" font-size="12.00">AET.String</text>
<text text-anchor="middle" x="166" y="-8.4" font-family="Times,serif" font-size="12.00">▷&quot;HR&quot;</text>
</g>
<!-- 314 -->
<g id="node9" class="node">
<title>314</title>
<polygon fill="#6f42b3" stroke="#6f42b3" points="2402,-180 2320,-180 2320,-144 2402,-144 2402,-180"/>
<text text-anchor="middle" x="2361" y="-165.4" font-family="Times,serif" font-size="12.00">AET.String</text>
<text text-anchor="middle" x="2361" y="-152.4" font-family="Times,serif" font-size="12.00">▷&quot;Alex&quot;</text>
</g>
<!-- 322 -->
<g id="node10" class="node">
<title>322</title>
<polygon fill="#6f42b3" stroke="#6f42b3" points="82,-180 0,-180 0,-144 82,-144 82,-180"/>
<text text-anchor="middle" x="41" y="-165.4" font-family="Times,serif" font-size="12.00">AET.String</text>
<text text-anchor="middle" x="41" y="-152.4" font-family="Times,serif" font-size="12.00">▷&quot;Charlie&quot;</text>
</g>
<!-- 330 -->
<g id="node11" class="node">
<title>330</title>
<polygon fill="#6f42b3" stroke="#6f42b3" points="432,-180 350,-180 350,-144 432,-144 432,-180"/>
<text text-anchor="middle" x="391" y="-165.4" font-family="Times,serif" font-size="12.00">AET.String</text>
<text text-anchor="middle" x="391" y="-152.4" font-family="Times,serif" font-size="12.00">▷&quot;Bob&quot;</text>
</g>
<!-- 344 -->
<g id="node12" class="node">
<title>344</title>
<polygon fill="#2fb6fc" stroke="#2fb6fc" points="1893.5,-180 1636.5,-180 1636.5,-144 1893.5,-144 1893.5,-180"/>
<text text-anchor="middle" x="1765" y="-165.4" font-family="Times,serif" font-size="12.00">AET.QuantityFloat.AUD</text>
<text text-anchor="middle" x="1765" y="-152.4" font-family="Times,serif" font-size="12.00">▷&lt;QuantityFloat: 73100 EN.Unit.AUD&gt;</text>
</g>
<!-- 374 -->
<g id="node13" class="node">
<title>374</title>
<polygon fill="#3e4337" stroke="#3e4337" points="2114,-180 1912,-180 1912,-144 2114,-144 2114,-180"/>
<text text-anchor="middle" x="2013" y="-165.4" font-family="Times,serif" font-size="12.00">AET.Time</text>
<text text-anchor="middle" x="2013" y="-152.4" font-family="Times,serif" font-size="12.00">▷2022&#45;01&#45;11 00:00:00 (+0800)</text>
</g>
<!-- 404 -->
<g id="node14" class="node">
<title>404</title>
<polygon fill="#6f42b3" stroke="#6f42b3" points="2301.5,-180 2132.5,-180 2132.5,-144 2301.5,-144 2301.5,-180"/>
<text text-anchor="middle" x="2217" y="-165.4" font-family="Times,serif" font-size="12.00">AET.String</text>
<text text-anchor="middle" x="2217" y="-152.4" font-family="Times,serif" font-size="12.00">▷&quot;alice.smith52@back...&quot;</text>
</g>
<!-- 412 -->
<g id="node15" class="node">
<title>412</title>
<polygon fill="#6f42b3" stroke="#6f42b3" points="1418,-180 1260,-180 1260,-144 1418,-144 1418,-180"/>
<text text-anchor="middle" x="1339" y="-165.4" font-family="Times,serif" font-size="12.00">AET.String</text>
<text text-anchor="middle" x="1339" y="-152.4" font-family="Times,serif" font-size="12.00">▷&quot;alice.smith@invali...&quot;</text>
</g>
<!-- 420 -->
<g id="node16" class="node">
<title>420</title>
<polygon fill="#6f42b3" stroke="#6f42b3" points="1518,-180 1436,-180 1436,-144 1518,-144 1518,-180"/>
<text text-anchor="middle" x="1477" y="-165.4" font-family="Times,serif" font-size="12.00">AET.String</text>
<text text-anchor="middle" x="1477" y="-152.4" font-family="Times,serif" font-size="12.00">▷&quot;Smith&quot;</text>
</g>
<!-- 428 -->
<g id="node17" class="node">
<title>428</title>
<polygon fill="#6f42b3" stroke="#6f42b3" points="1618,-180 1536,-180 1536,-144 1618,-144 1618,-180"/>
<text text-anchor="middle" x="1577" y="-165.4" font-family="Times,serif" font-size="12.00">AET.String</text>
<text text-anchor="middle" x="1577" y="-152.4" font-family="Times,serif" font-size="12.00">▷&quot;Alice&quot;</text>
</g>
<!-- 846 -->
<g id="node18" class="node">
<title>846</title>
<polygon fill="#2fb6fc" stroke="#2fb6fc" points="692,-180 450,-180 450,-144 692,-144 692,-180"/>
<text text-anchor="middle" x="571" y="-165.4" font-family="Times,serif" font-size="12.00">AET.QuantityFloat.AUD</text>
<text text-anchor="middle" x="571" y="-152.4" font-family="Times,serif" font-size="12.00">▷&lt;QuantityFloat: 100 EN.Unit.AUD&gt;</text>
</g>
<!-- 854 -->
<g id="node19" class="node">
<title>854</title>
<polygon fill="#3e4337" stroke="#3e4337" points="1062,-180 860,-180 860,-144 1062,-144 1062,-180"/>
<text text-anchor="middle" x="961" y="-165.4" font-family="Times,serif" font-size="12.00">AET.Time</text>
<text text-anchor="middle" x="961" y="-152.4" font-family="Times,serif" font-size="12.00">▷2022&#45;01&#45;12 00:00:00 (+0800)</text>
</g>
<!-- 862 -->
<g id="node20" class="node">
<title>862</title>
<polygon fill="#6f42b3" stroke="#6f42b3" points="1241.5,-180 1080.5,-180 1080.5,-144 1241.5,-144 1241.5,-180"/>
<text text-anchor="middle" x="1161" y="-165.4" font-family="Times,serif" font-size="12.00">AET.String</text>
<text text-anchor="middle" x="1161" y="-152.4" font-family="Times,serif" font-size="12.00">▷&quot;bob.jones@invalid....&quot;</text>
</g>
<!-- 870 -->
<g id="node21" class="node">
<title>870</title>
<polygon fill="#6f42b3" stroke="#6f42b3" points="332,-180 250,-180 250,-144 332,-144 332,-180"/>
<text text-anchor="middle" x="291" y="-165.4" font-family="Times,serif" font-size="12.00">AET.String</text>
<text text-anchor="middle" x="291" y="-152.4" font-family="Times,serif" font-size="12.00">▷&quot;Jones&quot;</text>
</g>
<!-- 195&#45;&gt;97 -->
<g id="edge2" class="edge">
<title>195&#45;&gt;97</title>
<path fill="none" stroke="#00171f" d="M732.34,-215.7C739.39,-207.18 748.02,-196.76 755.74,-187.45"/>
<polygon fill="#00171f" stroke="#00171f" points="758.54,-189.56 762.23,-179.62 753.15,-185.09 758.54,-189.56"/>
</g>
<!-- 247&#45;&gt;127 -->
<g id="edge4" class="edge">
<title>247&#45;&gt;127</title>
<path fill="none" stroke="#00171f" d="M166,-215.7C166,-207.98 166,-198.71 166,-190.11"/>
<polygon fill="#00171f" stroke="#00171f" points="169.5,-190.1 166,-180.1 162.5,-190.1 169.5,-190.1"/>
</g>
<!-- 255&#45;&gt;127 -->
<g id="edge6" class="edge">
<title>255&#45;&gt;127</title>
<path fill="none" stroke="#00171f" d="M241.54,-215.88C228.23,-206.56 211.61,-194.93 197.36,-184.95"/>
<polygon fill="#00171f" stroke="#00171f" points="199.04,-181.85 188.84,-178.99 195.02,-187.59 199.04,-181.85"/>
</g>
<!-- 263&#45;&gt;97 -->
<g id="edge8" class="edge">
<title>263&#45;&gt;97</title>
<path fill="none" stroke="#00171f" d="M1186.48,-228.41C1117.38,-220.32 972.41,-202.28 851,-180 845.36,-178.97 839.51,-177.8 833.67,-176.58"/>
<polygon fill="#00171f" stroke="#00171f" points="834.4,-173.16 823.89,-174.48 832.93,-180 834.4,-173.16"/>
</g>
<!-- 461&#45;&gt;276 -->
<g id="edge10" class="edge">
<title>461&#45;&gt;276</title>
<path fill="none" stroke="#777777" d="M776,-71.7C776,-63.98 776,-54.71 776,-46.11"/>
<polygon fill="#777777" stroke="#777777" points="779.5,-46.1 776,-36.1 772.5,-46.1 779.5,-46.1"/>
</g>
<!-- 534&#45;&gt;306 -->
<g id="edge12" class="edge">
<title>534&#45;&gt;306</title>
<path fill="none" stroke="#777777" d="M166,-71.7C166,-63.98 166,-54.71 166,-46.11"/>
<polygon fill="#777777" stroke="#777777" points="169.5,-46.1 166,-36.1 162.5,-46.1 169.5,-46.1"/>
</g>
<!-- 542&#45;&gt;314 -->
<g id="edge14" class="edge">
<title>542&#45;&gt;314</title>
<path fill="none" stroke="#99374f" d="M2361,-215.7C2361,-207.98 2361,-198.71 2361,-190.11"/>
<polygon fill="#99374f" stroke="#99374f" points="2364.5,-190.1 2361,-180.1 2357.5,-190.1 2364.5,-190.1"/>
</g>
<!-- 594&#45;&gt;322 -->
<g id="edge16" class="edge">
<title>594&#45;&gt;322</title>
<path fill="none" stroke="#99374f" d="M50.03,-215.7C48.71,-207.98 47.12,-198.71 45.65,-190.11"/>
<polygon fill="#99374f" stroke="#99374f" points="49.07,-189.37 43.93,-180.1 42.17,-190.55 49.07,-189.37"/>
</g>
<!-- 602&#45;&gt;330 -->
<g id="edge18" class="edge">
<title>602&#45;&gt;330</title>
<path fill="none" stroke="#99374f" d="M453.48,-215.7C443.13,-206.97 430.41,-196.24 419.16,-186.75"/>
<polygon fill="#99374f" stroke="#99374f" points="421.18,-183.88 411.28,-180.1 416.67,-189.23 421.18,-183.88"/>
</g>
<!-- 610&#45;&gt;344 -->
<g id="edge20" class="edge">
<title>610&#45;&gt;344</title>
<path fill="none" stroke="#124763" d="M1731.12,-215.7C1736.36,-207.56 1742.7,-197.69 1748.48,-188.7"/>
<polygon fill="#124763" stroke="#124763" points="1751.54,-190.41 1754,-180.1 1745.65,-186.62 1751.54,-190.41"/>
</g>
<!-- 662&#45;&gt;374 -->
<g id="edge22" class="edge">
<title>662&#45;&gt;374</title>
<path fill="none" stroke="#402667" d="M1936.71,-215.88C1949.67,-206.89 1965.73,-195.76 1979.77,-186.03"/>
<polygon fill="#402667" stroke="#402667" points="1981.97,-188.76 1988.2,-180.19 1977.98,-183.01 1981.97,-188.76"/>
</g>
<!-- 714&#45;&gt;404 -->
<g id="edge24" class="edge">
<title>714&#45;&gt;404</title>
<path fill="none" stroke="#604862" d="M2135.42,-215.88C2149.41,-206.81 2166.78,-195.55 2181.89,-185.76"/>
<polygon fill="#604862" stroke="#604862" points="2183.99,-188.57 2190.48,-180.19 2180.18,-182.69 2183.99,-188.57"/>
</g>
<!-- 766&#45;&gt;412 -->
<g id="edge26" class="edge">
<title>766&#45;&gt;412</title>
<path fill="none" stroke="#604862" d="M1356.31,-215.7C1353.75,-207.9 1350.67,-198.51 1347.82,-189.83"/>
<polygon fill="#604862" stroke="#604862" points="1351.07,-188.51 1344.62,-180.1 1344.42,-190.7 1351.07,-188.51"/>
</g>
<!-- 774&#45;&gt;420 -->
<g id="edge28" class="edge">
<title>774&#45;&gt;420</title>
<path fill="none" stroke="#d3c5f9" d="M1477,-215.7C1477,-207.98 1477,-198.71 1477,-190.11"/>
<polygon fill="#d3c5f9" stroke="#d3c5f9" points="1480.5,-190.1 1477,-180.1 1473.5,-190.1 1480.5,-190.1"/>
</g>
<!-- 826&#45;&gt;428 -->
<g id="edge30" class="edge">
<title>826&#45;&gt;428</title>
<path fill="none" stroke="#99374f" d="M1580.01,-215.7C1579.57,-207.98 1579.04,-198.71 1578.55,-190.11"/>
<polygon fill="#99374f" stroke="#99374f" points="1582.04,-189.89 1577.98,-180.1 1575.05,-190.29 1582.04,-189.89"/>
</g>
<!-- 894&#45;&gt;846 -->
<g id="edge32" class="edge">
<title>894&#45;&gt;846</title>
<path fill="none" stroke="#124763" d="M568.74,-215.7C569.07,-207.98 569.47,-198.71 569.84,-190.11"/>
<polygon fill="#124763" stroke="#124763" points="573.34,-190.25 570.27,-180.1 566.34,-189.95 573.34,-190.25"/>
</g>
<!-- 902&#45;&gt;854 -->
<g id="edge34" class="edge">
<title>902&#45;&gt;854</title>
<path fill="none" stroke="#402667" d="M906.8,-215.7C915.6,-207.14 926.38,-196.66 936,-187.3"/>
<polygon fill="#402667" stroke="#402667" points="938.68,-189.58 943.41,-180.1 933.8,-184.57 938.68,-189.58"/>
</g>
<!-- 910&#45;&gt;862 -->
<g id="edge36" class="edge">
<title>910&#45;&gt;862</title>
<path fill="none" stroke="#604862" d="M1074.13,-215.88C1089.17,-206.72 1107.87,-195.34 1124.06,-185.48"/>
<polygon fill="#604862" stroke="#604862" points="1126.04,-188.38 1132.76,-180.19 1122.4,-182.4 1126.04,-188.38"/>
</g>
<!-- 918&#45;&gt;870 -->
<g id="edge38" class="edge">
<title>918&#45;&gt;870</title>
<path fill="none" stroke="#d3c5f9" d="M349.72,-215.7C340.08,-207.05 328.27,-196.45 317.77,-187.03"/>
<polygon fill="#d3c5f9" stroke="#d3c5f9" points="319.84,-184.18 310.06,-180.1 315.16,-189.39 319.84,-184.18"/>
</g>
</g>
</svg>
