<?xml version="1.0" encoding="UTF-8" standalone="no"?>
<!DOCTYPE svg PUBLIC "-//W3C//DTD SVG 1.1//EN"
 "http://www.w3.org/Graphics/SVG/1.1/DTD/svg11.dtd">
<!-- Generated by graphviz version 2.50.0 (0)
 -->
<!-- Title: G Pages: 1 -->
<svg width="1716pt" height="332pt"
 viewBox="0.00 0.00 1716.48 332.00" xmlns="http://www.w3.org/2000/svg" xmlns:xlink="http://www.w3.org/1999/xlink">
<g id="graph0" class="graph" transform="scale(1 1) rotate(0) translate(4 328)">
<title>G</title>
<polygon fill="white" stroke="transparent" points="-4,4 -4,-328 1712.48,-328 1712.48,4 -4,4"/>
<!-- 96 -->
<g id="node1" class="node">
<title>96</title>
<ellipse fill="#115a63" stroke="#115a63" cx="641" cy="-306" rx="58.46" ry="18"/>
<text text-anchor="middle" x="641" y="-302.9" font-family="Times,serif" font-size="12.00">ET.Employee</text>
</g>
<!-- 193 -->
<g id="node18" class="node">
<title>193</title>
<text text-anchor="middle" x="1006" y="-231.5" font-family="Times,serif" font-size="10.00" fill="#00171f">RT.WorksFor</text>
</g>
<!-- 96&#45;&gt;193 -->
<g id="edge1" class="edge">
<title>96&#45;&gt;193</title>
<path fill="none" stroke="#00171f" d="M689.47,-295.7C758.69,-282.43 885.24,-258.16 955.54,-244.68"/>
<polygon fill="#00171f" stroke="#00171f" points="956.33,-248.09 965.49,-242.77 955.01,-241.22 956.33,-248.09"/>
</g>
<!-- 473 -->
<g id="node22" class="node">
<title>473</title>
<text text-anchor="middle" x="537" y="-231.5" font-family="Times,serif" font-size="10.00" fill="#777777">RT.FirstName</text>
</g>
<!-- 96&#45;&gt;473 -->
<g id="edge9" class="edge">
<title>96&#45;&gt;473</title>
<path fill="none" stroke="#777777" d="M617.66,-289.29C603.94,-280.06 586.36,-268.22 571.11,-257.96"/>
<polygon fill="#777777" stroke="#777777" points="572.7,-254.81 562.45,-252.13 568.79,-260.61 572.7,-254.81"/>
</g>
<!-- 525 -->
<g id="node23" class="node">
<title>525</title>
<text text-anchor="middle" x="641" y="-231.5" font-family="Times,serif" font-size="10.00" fill="#99374f">RT.LastName</text>
</g>
<!-- 96&#45;&gt;525 -->
<g id="edge11" class="edge">
<title>96&#45;&gt;525</title>
<path fill="none" stroke="#99374f" d="M641,-287.7C641,-279.98 641,-270.71 641,-262.11"/>
<polygon fill="#99374f" stroke="#99374f" points="644.5,-262.1 641,-252.1 637.5,-262.1 644.5,-262.1"/>
</g>
<!-- 577 -->
<g id="node24" class="node">
<title>577</title>
<text text-anchor="middle" x="754" y="-231.5" font-family="Times,serif" font-size="10.00" fill="#124763">RT.Email</text>
</g>
<!-- 96&#45;&gt;577 -->
<g id="edge13" class="edge">
<title>96&#45;&gt;577</title>
<path fill="none" stroke="#124763" d="M665.8,-289.64C681.07,-280.18 700.9,-267.89 717.9,-257.36"/>
<polygon fill="#124763" stroke="#124763" points="719.83,-260.29 726.49,-252.04 716.14,-254.34 719.83,-260.29"/>
</g>
<!-- 629 -->
<g id="node25" class="node">
<title>629</title>
<text text-anchor="middle" x="866" y="-231.5" font-family="Times,serif" font-size="10.00" fill="#124763">RT.Email</text>
</g>
<!-- 96&#45;&gt;629 -->
<g id="edge15" class="edge">
<title>96&#45;&gt;629</title>
<path fill="none" stroke="#124763" d="M680.71,-292.65C721.27,-280.03 783.95,-260.53 824.98,-247.76"/>
<polygon fill="#124763" stroke="#124763" points="826.15,-251.06 834.66,-244.75 824.07,-244.38 826.15,-251.06"/>
</g>
<!-- 642 -->
<g id="node26" class="node">
<title>642</title>
<text text-anchor="middle" x="227" y="-231.5" font-family="Times,serif" font-size="10.00" fill="#402667">RT.HireDate</text>
</g>
<!-- 96&#45;&gt;642 -->
<g id="edge17" class="edge">
<title>96&#45;&gt;642</title>
<path fill="none" stroke="#402667" d="M591.06,-296.56C511.41,-283.09 356.49,-256.89 276.88,-243.43"/>
<polygon fill="#402667" stroke="#402667" points="277.06,-239.92 266.62,-241.7 275.9,-246.82 277.06,-239.92"/>
</g>
<!-- 699 -->
<g id="node27" class="node">
<title>699</title>
<text text-anchor="middle" x="396" y="-231.5" font-family="Times,serif" font-size="10.00" fill="#604862">RT.Salary</text>
</g>
<!-- 96&#45;&gt;699 -->
<g id="edge19" class="edge">
<title>96&#45;&gt;699</title>
<path fill="none" stroke="#604862" d="M599.72,-293.2C554.96,-280.42 483.88,-260.11 438.61,-247.18"/>
<polygon fill="#604862" stroke="#604862" points="439.39,-243.76 428.81,-244.37 437.46,-250.49 439.39,-243.76"/>
</g>
<!-- 126 -->
<g id="node2" class="node">
<title>126</title>
<ellipse fill="#115a63" stroke="#115a63" cx="1479" cy="-306" rx="58.46" ry="18"/>
<text text-anchor="middle" x="1479" y="-302.9" font-family="Times,serif" font-size="12.00">ET.Employee</text>
</g>
<!-- 245 -->
<g id="node19" class="node">
<title>245</title>
<text text-anchor="middle" x="1444" y="-231.5" font-family="Times,serif" font-size="10.00" fill="#00171f">RT.WorksFor</text>
</g>
<!-- 126&#45;&gt;245 -->
<g id="edge3" class="edge">
<title>126&#45;&gt;245</title>
<path fill="none" stroke="#00171f" d="M1470.53,-288.05C1466.5,-280.01 1461.6,-270.2 1457.11,-261.23"/>
<polygon fill="#00171f" stroke="#00171f" points="1460.24,-259.65 1452.64,-252.28 1453.98,-262.78 1460.24,-259.65"/>
</g>
<!-- 751 -->
<g id="node28" class="node">
<title>751</title>
<text text-anchor="middle" x="1546" y="-231.5" font-family="Times,serif" font-size="10.00" fill="#777777">RT.FirstName</text>
</g>
<!-- 126&#45;&gt;751 -->
<g id="edge21" class="edge">
<title>126&#45;&gt;751</title>
<path fill="none" stroke="#777777" d="M1494.88,-288.41C1503.06,-279.86 1513.21,-269.26 1522.3,-259.77"/>
<polygon fill="#777777" stroke="#777777" points="1524.91,-262.09 1529.3,-252.45 1519.86,-257.25 1524.91,-262.09"/>
</g>
<!-- 134 -->
<g id="node3" class="node">
<title>134</title>
<ellipse fill="#115a63" stroke="#115a63" cx="1243" cy="-306" rx="58.46" ry="18"/>
<text text-anchor="middle" x="1243" y="-302.9" font-family="Times,serif" font-size="12.00">ET.Employee</text>
</g>
<!-- 253 -->
<g id="node20" class="node">
<title>253</title>
<text text-anchor="middle" x="1345" y="-231.5" font-family="Times,serif" font-size="10.00" fill="#00171f">RT.WorksFor</text>
</g>
<!-- 134&#45;&gt;253 -->
<g id="edge5" class="edge">
<title>134&#45;&gt;253</title>
<path fill="none" stroke="#00171f" d="M1265.89,-289.29C1279.34,-280.06 1296.59,-268.22 1311.55,-257.96"/>
<polygon fill="#00171f" stroke="#00171f" points="1313.78,-260.67 1320.04,-252.13 1309.82,-254.9 1313.78,-260.67"/>
</g>
<!-- 261 -->
<g id="node21" class="node">
<title>261</title>
<text text-anchor="middle" x="1130" y="-231.5" font-family="Times,serif" font-size="10.00" fill="#00171f">RT.WorksFor</text>
</g>
<!-- 134&#45;&gt;261 -->
<g id="edge7" class="edge">
<title>134&#45;&gt;261</title>
<path fill="none" stroke="#00171f" d="M1218.2,-289.64C1202.93,-280.18 1183.1,-267.89 1166.1,-257.36"/>
<polygon fill="#00171f" stroke="#00171f" points="1167.86,-254.34 1157.51,-252.04 1164.17,-260.29 1167.86,-254.34"/>
</g>
<!-- 759 -->
<g id="node29" class="node">
<title>759</title>
<text text-anchor="middle" x="1243" y="-231.5" font-family="Times,serif" font-size="10.00" fill="#777777">RT.FirstName</text>
</g>
<!-- 134&#45;&gt;759 -->
<g id="edge23" class="edge">
<title>134&#45;&gt;759</title>
<path fill="none" stroke="#777777" d="M1243,-287.7C1243,-279.98 1243,-270.71 1243,-262.11"/>
<polygon fill="#777777" stroke="#777777" points="1246.5,-262.1 1243,-252.1 1239.5,-262.1 1246.5,-262.1"/>
</g>
<!-- 142 -->
<g id="node4" class="node">
<title>142</title>
<ellipse fill="#115a63" stroke="#115a63" cx="1650" cy="-306" rx="58.46" ry="18"/>
<text text-anchor="middle" x="1650" y="-302.9" font-family="Times,serif" font-size="12.00">ET.Employee</text>
</g>
<!-- 767 -->
<g id="node30" class="node">
<title>767</title>
<text text-anchor="middle" x="1650" y="-231.5" font-family="Times,serif" font-size="10.00" fill="#777777">RT.FirstName</text>
</g>
<!-- 142&#45;&gt;767 -->
<g id="edge25" class="edge">
<title>142&#45;&gt;767</title>
<path fill="none" stroke="#777777" d="M1650,-287.7C1650,-279.98 1650,-270.71 1650,-262.11"/>
<polygon fill="#777777" stroke="#777777" points="1653.5,-262.1 1650,-252.1 1646.5,-262.1 1653.5,-262.1"/>
</g>
<!-- 155 -->
<g id="node5" class="node">
<title>155</title>
<ellipse fill="#78c25c" stroke="#78c25c" cx="1394" cy="-162" rx="65.74" ry="18"/>
<text text-anchor="middle" x="1394" y="-158.9" font-family="Times,serif" font-size="12.00">ET.Department</text>
</g>
<!-- 775 -->
<g id="node31" class="node">
<title>775</title>
<text text-anchor="middle" x="1394" y="-87.5" font-family="Times,serif" font-size="10.00" fill="#40b60d">RT.Name</text>
</g>
<!-- 155&#45;&gt;775 -->
<g id="edge27" class="edge">
<title>155&#45;&gt;775</title>
<path fill="none" stroke="#40b60d" d="M1394,-143.7C1394,-135.98 1394,-126.71 1394,-118.11"/>
<polygon fill="#40b60d" stroke="#40b60d" points="1397.5,-118.1 1394,-108.1 1390.5,-118.1 1397.5,-118.1"/>
</g>
<!-- 185 -->
<g id="node6" class="node">
<title>185</title>
<ellipse fill="#78c25c" stroke="#78c25c" cx="1124" cy="-162" rx="65.74" ry="18"/>
<text text-anchor="middle" x="1124" y="-158.9" font-family="Times,serif" font-size="12.00">ET.Department</text>
</g>
<!-- 827 -->
<g id="node32" class="node">
<title>827</title>
<text text-anchor="middle" x="1124" y="-87.5" font-family="Times,serif" font-size="10.00" fill="#40b60d">RT.Name</text>
</g>
<!-- 185&#45;&gt;827 -->
<g id="edge29" class="edge">
<title>185&#45;&gt;827</title>
<path fill="none" stroke="#40b60d" d="M1124,-143.7C1124,-135.98 1124,-126.71 1124,-118.11"/>
<polygon fill="#40b60d" stroke="#40b60d" points="1127.5,-118.1 1124,-108.1 1120.5,-118.1 1127.5,-118.1"/>
</g>
<!-- 274 -->
<g id="node7" class="node">
<title>274</title>
<polygon fill="#6f42b3" stroke="#6f42b3" points="578,-180 496,-180 496,-144 578,-144 578,-180"/>
<text text-anchor="middle" x="537" y="-165.4" font-family="Times,serif" font-size="12.00">AET.String</text>
<text text-anchor="middle" x="537" y="-152.4" font-family="Times,serif" font-size="12.00">▷&quot;Alice&quot;</text>
</g>
<!-- 304 -->
<g id="node8" class="node">
<title>304</title>
<polygon fill="#6f42b3" stroke="#6f42b3" points="678,-180 596,-180 596,-144 678,-144 678,-180"/>
<text text-anchor="middle" x="637" y="-165.4" font-family="Times,serif" font-size="12.00">AET.String</text>
<text text-anchor="middle" x="637" y="-152.4" font-family="Times,serif" font-size="12.00">▷&quot;Smith&quot;</text>
</g>
<!-- 312 -->
<g id="node9" class="node">
<title>312</title>
<polygon fill="#6f42b3" stroke="#6f42b3" points="854,-180 696,-180 696,-144 854,-144 854,-180"/>
<text text-anchor="middle" x="775" y="-165.4" font-family="Times,serif" font-size="12.00">AET.String</text>
<text text-anchor="middle" x="775" y="-152.4" font-family="Times,serif" font-size="12.00">▷&quot;alice.smith@invali...&quot;</text>
</g>
<!-- 320 -->
<g id="node10" class="node">
<title>320</title>
<polygon fill="#6f42b3" stroke="#6f42b3" points="1040.5,-180 871.5,-180 871.5,-144 1040.5,-144 1040.5,-180"/>
<text text-anchor="middle" x="956" y="-165.4" font-family="Times,serif" font-size="12.00">AET.String</text>
<text text-anchor="middle" x="956" y="-152.4" font-family="Times,serif" font-size="12.00">▷&quot;alice.smith52@back...&quot;</text>
</g>
<!-- 333 -->
<g id="node11" class="node">
<title>333</title>
<polygon fill="#2fb6fc" stroke="#2fb6fc" points="202,-180 0,-180 0,-144 202,-144 202,-180"/>
<text text-anchor="middle" x="101" y="-165.4" font-family="Times,serif" font-size="12.00">AET.Time</text>
<text text-anchor="middle" x="101" y="-152.4" font-family="Times,serif" font-size="12.00">▷2022&#45;01&#45;11 00:00:00 (+0800)</text>
</g>
<!-- 363 -->
<g id="node12" class="node">
<title>363</title>
<polygon fill="#3e4337" stroke="#3e4337" points="477.5,-180 220.5,-180 220.5,-144 477.5,-144 477.5,-180"/>
<text text-anchor="middle" x="349" y="-165.4" font-family="Times,serif" font-size="12.00">AET.QuantityFloat.AUD</text>
<text text-anchor="middle" x="349" y="-152.4" font-family="Times,serif" font-size="12.00">▷&lt;QuantityFloat: 73100 EN.Unit.AUD&gt;</text>
</g>
<!-- 393 -->
<g id="node13" class="node">
<title>393</title>
<polygon fill="#6f42b3" stroke="#6f42b3" points="1587,-180 1505,-180 1505,-144 1587,-144 1587,-180"/>
<text text-anchor="middle" x="1546" y="-165.4" font-family="Times,serif" font-size="12.00">AET.String</text>
<text text-anchor="middle" x="1546" y="-152.4" font-family="Times,serif" font-size="12.00">▷&quot;Bob&quot;</text>
</g>
<!-- 401 -->
<g id="node14" class="node">
<title>401</title>
<polygon fill="#6f42b3" stroke="#6f42b3" points="1290,-180 1208,-180 1208,-144 1290,-144 1290,-180"/>
<text text-anchor="middle" x="1249" y="-165.4" font-family="Times,serif" font-size="12.00">AET.String</text>
<text text-anchor="middle" x="1249" y="-152.4" font-family="Times,serif" font-size="12.00">▷&quot;Charlie&quot;</text>
</g>
<!-- 409 -->
<g id="node15" class="node">
<title>409</title>
<polygon fill="#6f42b3" stroke="#6f42b3" points="1691,-180 1609,-180 1609,-144 1691,-144 1691,-180"/>
<text text-anchor="middle" x="1650" y="-165.4" font-family="Times,serif" font-size="12.00">AET.String</text>
<text text-anchor="middle" x="1650" y="-152.4" font-family="Times,serif" font-size="12.00">▷&quot;Alex&quot;</text>
</g>
<!-- 417 -->
<g id="node16" class="node">
<title>417</title>
<polygon fill="#6f42b3" stroke="#6f42b3" points="1435,-36 1353,-36 1353,0 1435,0 1435,-36"/>
<text text-anchor="middle" x="1394" y="-21.4" font-family="Times,serif" font-size="12.00">AET.String</text>
<text text-anchor="middle" x="1394" y="-8.4" font-family="Times,serif" font-size="12.00">▷&quot;HR&quot;</text>
</g>
<!-- 425 -->
<g id="node17" class="node">
<title>425</title>
<polygon fill="#6f42b3" stroke="#6f42b3" points="1170,-36 1078,-36 1078,0 1170,0 1170,-36"/>
<text text-anchor="middle" x="1124" y="-21.4" font-family="Times,serif" font-size="12.00">AET.String</text>
<text text-anchor="middle" x="1124" y="-8.4" font-family="Times,serif" font-size="12.00">▷&quot;Research&quot;</text>
</g>
<!-- 193&#45;&gt;185 -->
<g id="edge2" class="edge">
<title>193&#45;&gt;185</title>
<path fill="none" stroke="#00171f" d="M1034.87,-215.88C1051.13,-206.23 1071.58,-194.1 1088.79,-183.89"/>
<polygon fill="#00171f" stroke="#00171f" points="1090.63,-186.86 1097.45,-178.75 1087.06,-180.84 1090.63,-186.86"/>
</g>
<!-- 245&#45;&gt;155 -->
<g id="edge4" class="edge">
<title>245&#45;&gt;155</title>
<path fill="none" stroke="#00171f" d="M1431.64,-215.7C1425.77,-207.47 1418.63,-197.48 1412.16,-188.42"/>
<polygon fill="#00171f" stroke="#00171f" points="1414.88,-186.21 1406.22,-180.1 1409.18,-190.28 1414.88,-186.21"/>
</g>
<!-- 253&#45;&gt;155 -->
<g id="edge6" class="edge">
<title>253&#45;&gt;155</title>
<path fill="none" stroke="#00171f" d="M1357.11,-215.7C1362.87,-207.47 1369.86,-197.48 1376.21,-188.42"/>
<polygon fill="#00171f" stroke="#00171f" points="1379.16,-190.3 1382.03,-180.1 1373.42,-186.29 1379.16,-190.3"/>
</g>
<!-- 261&#45;&gt;185 -->
<g id="edge8" class="edge">
<title>261&#45;&gt;185</title>
<path fill="none" stroke="#00171f" d="M1128.52,-215.7C1127.86,-207.98 1127.06,-198.71 1126.32,-190.11"/>
<polygon fill="#00171f" stroke="#00171f" points="1129.81,-189.77 1125.47,-180.1 1122.83,-190.37 1129.81,-189.77"/>
</g>
<!-- 473&#45;&gt;274 -->
<g id="edge10" class="edge">
<title>473&#45;&gt;274</title>
<path fill="none" stroke="#777777" d="M537,-215.7C537,-207.98 537,-198.71 537,-190.11"/>
<polygon fill="#777777" stroke="#777777" points="540.5,-190.1 537,-180.1 533.5,-190.1 540.5,-190.1"/>
</g>
<!-- 525&#45;&gt;304 -->
<g id="edge12" class="edge">
<title>525&#45;&gt;304</title>
<path fill="none" stroke="#99374f" d="M640.01,-215.7C639.57,-207.98 639.04,-198.71 638.55,-190.11"/>
<polygon fill="#99374f" stroke="#99374f" points="642.04,-189.89 637.98,-180.1 635.05,-190.29 642.04,-189.89"/>
</g>
<!-- 577&#45;&gt;312 -->
<g id="edge14" class="edge">
<title>577&#45;&gt;312</title>
<path fill="none" stroke="#124763" d="M759.19,-215.7C761.53,-207.9 764.35,-198.51 766.95,-189.83"/>
<polygon fill="#124763" stroke="#124763" points="770.35,-190.69 769.87,-180.1 763.64,-188.68 770.35,-190.69"/>
</g>
<!-- 629&#45;&gt;320 -->
<g id="edge16" class="edge">
<title>629&#45;&gt;320</title>
<path fill="none" stroke="#124763" d="M888.25,-215.7C899.58,-206.88 913.53,-196.03 925.82,-186.47"/>
<polygon fill="#124763" stroke="#124763" points="928.26,-189.01 934.01,-180.1 923.97,-183.48 928.26,-189.01"/>
</g>
<!-- 642&#45;&gt;333 -->
<g id="edge18" class="edge">
<title>642&#45;&gt;333</title>
<path fill="none" stroke="#402667" d="M196.18,-215.88C179.55,-206.64 158.84,-195.13 140.98,-185.21"/>
<polygon fill="#402667" stroke="#402667" points="142.38,-181.99 131.94,-180.19 138.98,-188.11 142.38,-181.99"/>
</g>
<!-- 699&#45;&gt;363 -->
<g id="edge20" class="edge">
<title>699&#45;&gt;363</title>
<path fill="none" stroke="#604862" d="M384.38,-215.7C378.86,-207.47 372.15,-197.48 366.07,-188.42"/>
<polygon fill="#604862" stroke="#604862" points="368.96,-186.46 360.48,-180.1 363.15,-190.36 368.96,-186.46"/>
</g>
<!-- 751&#45;&gt;393 -->
<g id="edge22" class="edge">
<title>751&#45;&gt;393</title>
<path fill="none" stroke="#777777" d="M1546,-215.7C1546,-207.98 1546,-198.71 1546,-190.11"/>
<polygon fill="#777777" stroke="#777777" points="1549.5,-190.1 1546,-180.1 1542.5,-190.1 1549.5,-190.1"/>
</g>
<!-- 759&#45;&gt;401 -->
<g id="edge24" class="edge">
<title>759&#45;&gt;401</title>
<path fill="none" stroke="#777777" d="M1244.48,-215.7C1245.14,-207.98 1245.94,-198.71 1246.68,-190.11"/>
<polygon fill="#777777" stroke="#777777" points="1250.17,-190.37 1247.53,-180.1 1243.19,-189.77 1250.17,-190.37"/>
</g>
<!-- 767&#45;&gt;409 -->
<g id="edge26" class="edge">
<title>767&#45;&gt;409</title>
<path fill="none" stroke="#777777" d="M1650,-215.7C1650,-207.98 1650,-198.71 1650,-190.11"/>
<polygon fill="#777777" stroke="#777777" points="1653.5,-190.1 1650,-180.1 1646.5,-190.1 1653.5,-190.1"/>
</g>
<!-- 775&#45;&gt;417 -->
<g id="edge28" class="edge">
<title>775&#45;&gt;417</title>
<path fill="none" stroke="#40b60d" d="M1394,-71.7C1394,-63.98 1394,-54.71 1394,-46.11"/>
<polygon fill="#40b60d" stroke="#40b60d" points="1397.5,-46.1 1394,-36.1 1390.5,-46.1 1397.5,-46.1"/>
</g>
<!-- 827&#45;&gt;425 -->
<g id="edge30" class="edge">
<title>827&#45;&gt;425</title>
<path fill="none" stroke="#40b60d" d="M1124,-71.7C1124,-63.98 1124,-54.71 1124,-46.11"/>
<polygon fill="#40b60d" stroke="#40b60d" points="1127.5,-46.1 1124,-36.1 1120.5,-46.1 1127.5,-46.1"/>
</g>
</g>
</svg>
