<?xml version="1.0" encoding="UTF-8" standalone="no"?>
<!DOCTYPE svg PUBLIC "-//W3C//DTD SVG 1.1//EN"
 "http://www.w3.org/Graphics/SVG/1.1/DTD/svg11.dtd">
<!-- Generated by graphviz version 2.50.0 (0)
 -->
<!-- Pages: 1 -->
<svg width="524pt" height="305pt"
 viewBox="0.00 0.00 524.00 305.00" xmlns="http://www.w3.org/2000/svg" xmlns:xlink="http://www.w3.org/1999/xlink">
<g id="graph0" class="graph" transform="scale(1 1) rotate(0) translate(4 301)">
<polygon fill="white" stroke="transparent" points="-4,4 -4,-301 520,-301 520,4 -4,4"/>
<!-- employee -->
<g id="node1" class="node">
<title>employee</title>
<polygon fill="none" stroke="black" points="254.5,-297 144.5,-297 144.5,-261 254.5,-261 254.5,-297"/>
<text text-anchor="middle" x="199.5" y="-275.3" font-family="Times,serif" font-size="14.00">ET.Employee</text>
</g>
<!-- employee&#45;&gt;employee -->
<g id="edge4" class="edge">
<title>employee&#45;&gt;employee</title>
<path fill="none" stroke="black" d="M262.61,-285.36C268.66,-284.07 272.5,-281.95 272.5,-279 272.5,-276.37 269.45,-274.4 264.5,-273.09"/>
<ellipse fill="black" stroke="black" cx="258.53" cy="-285.94" rx="4" ry="4"/>
<polygon fill="black" stroke="black" points="265,-269.63 254.57,-271.5 263.89,-276.54 265,-269.63"/>
<text text-anchor="middle" x="326.5" y="-275.3" font-family="Times,serif" font-size="14.00">RT.ManagedBy</text>
</g>
<!-- worksfor -->
<g id="node7" class="node">
<title>worksfor</title>
<ellipse fill="none" stroke="black" cx="120.5" cy="-192" rx="81.49" ry="18"/>
<text text-anchor="middle" x="120.5" y="-188.3" font-family="Times,serif" font-size="14.00">RT.WorksFor(*)</text>
</g>
<!-- employee&#45;&gt;worksfor -->
<g id="edge1" class="edge">
<title>employee&#45;&gt;worksfor</title>
<path fill="none" stroke="black" d="M177.73,-254.57C164.56,-240.41 148.08,-222.68 136.19,-209.89"/>
<ellipse fill="black" stroke="black" cx="180.79" cy="-257.87" rx="4" ry="4"/>
</g>
<!-- dependent -->
<g id="node8" class="node">
<title>dependent</title>
<polygon fill="none" stroke="black" points="337,-210 220,-210 220,-174 337,-174 337,-210"/>
<text text-anchor="middle" x="278.5" y="-188.3" font-family="Times,serif" font-size="14.00">ET.Dependent</text>
</g>
<!-- employee&#45;&gt;dependent -->
<g id="edge5" class="edge">
<title>employee&#45;&gt;dependent</title>
<path fill="none" stroke="black" d="M221.23,-254.62C231.86,-243.19 244.64,-229.43 255.43,-217.82"/>
<ellipse fill="black" stroke="black" cx="218.21" cy="-257.87" rx="4" ry="4"/>
<polygon fill="black" stroke="black" points="258.29,-219.88 262.54,-210.18 253.17,-215.12 258.29,-219.88"/>
<text text-anchor="middle" x="317.5" y="-231.8" font-family="Times,serif" font-size="14.00">RT.HasDependent(*)</text>
</g>
<!-- department -->
<g id="node2" class="node">
<title>department</title>
<polygon fill="none" stroke="black" points="125,-123 0,-123 0,-87 125,-87 125,-123"/>
<text text-anchor="middle" x="62.5" y="-101.3" font-family="Times,serif" font-size="14.00">ET.Department</text>
</g>
<!-- location -->
<g id="node3" class="node">
<title>location</title>
<polygon fill="none" stroke="black" points="112.5,-36 12.5,-36 12.5,0 112.5,0 112.5,-36"/>
<text text-anchor="middle" x="62.5" y="-14.3" font-family="Times,serif" font-size="14.00">ET.Location</text>
</g>
<!-- department&#45;&gt;location -->
<g id="edge6" class="edge">
<title>department&#45;&gt;location</title>
<path fill="none" stroke="black" d="M62.5,-78.69C62.5,-68.51 62.5,-56.75 62.5,-46.37"/>
<ellipse fill="black" stroke="black" cx="62.5" cy="-82.8" rx="4" ry="4"/>
<polygon fill="black" stroke="black" points="66,-46.18 62.5,-36.18 59,-46.18 66,-46.18"/>
<text text-anchor="middle" x="110" y="-57.8" font-family="Times,serif" font-size="14.00">RT.LocatedAt</text>
</g>
<!-- country -->
<g id="node4" class="node">
<title>country</title>
<polygon fill="none" stroke="black" points="322,-36 225,-36 225,0 322,0 322,-36"/>
<text text-anchor="middle" x="273.5" y="-14.3" font-family="Times,serif" font-size="14.00">ET.Country</text>
</g>
<!-- location&#45;&gt;country -->
<g id="edge7" class="edge">
<title>location&#45;&gt;country</title>
<path fill="none" stroke="black" d="M120.66,-18C149.97,-18 185.44,-18 214.83,-18"/>
<ellipse fill="black" stroke="black" cx="116.5" cy="-18" rx="4" ry="4"/>
<polygon fill="black" stroke="black" points="214.95,-21.5 224.95,-18 214.95,-14.5 214.95,-21.5"/>
<text text-anchor="middle" x="168.75" y="-24.8" font-family="Times,serif" font-size="14.00">RT.InCountry</text>
</g>
<!-- region -->
<g id="node5" class="node">
<title>region</title>
<polygon fill="none" stroke="black" points="516,-36 427,-36 427,0 516,0 516,-36"/>
<text text-anchor="middle" x="471.5" y="-14.3" font-family="Times,serif" font-size="14.00">ET.Region</text>
</g>
<!-- country&#45;&gt;region -->
<g id="edge8" class="edge">
<title>country&#45;&gt;region</title>
<path fill="none" stroke="black" d="M330.23,-18C357.4,-18 389.79,-18 416.7,-18"/>
<ellipse fill="black" stroke="black" cx="326.19" cy="-18" rx="4" ry="4"/>
<polygon fill="black" stroke="black" points="416.73,-21.5 426.73,-18 416.73,-14.5 416.73,-21.5"/>
<text text-anchor="middle" x="374.5" y="-24.8" font-family="Times,serif" font-size="14.00">RT.InRegion</text>
</g>
<!-- role -->
<g id="node6" class="node">
<title>role</title>
<polygon fill="none" stroke="black" points="214,-123 143,-123 143,-87 214,-87 214,-123"/>
<text text-anchor="middle" x="178.5" y="-101.3" font-family="Times,serif" font-size="14.00">ET.Role</text>
</g>
<!-- worksfor&#45;&gt;department -->
<g id="edge2" class="edge">
<title>worksfor&#45;&gt;department</title>
<path fill="none" stroke="black" d="M108.76,-173.8C100.51,-161.7 89.32,-145.3 80.01,-131.67"/>
<polygon fill="black" stroke="black" points="82.75,-129.46 74.22,-123.18 76.97,-133.41 82.75,-129.46"/>
</g>
<!-- worksfor&#45;&gt;role -->
<g id="edge3" class="edge">
<title>worksfor&#45;&gt;role</title>
<path fill="none" stroke="black" d="M136.98,-166.85C144.48,-155.86 153.37,-142.83 160.99,-131.66"/>
<ellipse fill="black" stroke="black" cx="134.49" cy="-170.49" rx="4" ry="4"/>
<polygon fill="black" stroke="black" points="164.03,-133.41 166.78,-123.18 158.25,-129.46 164.03,-133.41"/>
<text text-anchor="middle" x="181" y="-144.8" font-family="Times,serif" font-size="14.00">RT.Role</text>
</g>
</g>
</svg>
