<?xml version="1.0" encoding="UTF-8" standalone="no"?>
<!DOCTYPE svg PUBLIC "-//W3C//DTD SVG 1.1//EN"
 "http://www.w3.org/Graphics/SVG/1.1/DTD/svg11.dtd">
<!-- Generated by graphviz version 2.50.0 (0)
 -->
<!-- Pages: 1 -->
<svg width="212pt" height="131pt"
 viewBox="0.00 0.00 212.00 131.00" xmlns="http://www.w3.org/2000/svg" xmlns:xlink="http://www.w3.org/1999/xlink">
<g id="graph0" class="graph" transform="scale(1 1) rotate(0) translate(4 127)">
<!-- Account -->
<g id="node1" class="node">
<title>Account</title>
<ellipse fill="#1a1a1a" stroke="#00cd00" cx="91.5" cy="-105" rx="48.19" ry="18"/>
<text text-anchor="middle" x="91.5" y="-101.3" font-family="Times,serif" font-size="14.00" fill="white">Account</text>
</g>
<!-- General -->
<g id="node2" class="node">
<title>General</title>
<polygon fill="#1a1a1a" stroke="#00cd00" points="73,-36 0,-36 0,0 73,0 73,-36"/>
<text text-anchor="middle" x="36.5" y="-14.3" font-family="Times,serif" font-size="14.00" fill="white">General</text>
</g>
<!-- Account&#45;&gt;General -->
<g id="edge1" class="edge">
<title>Account&#45;&gt;General</title>
<path fill="none" stroke="#00cd00" d="M80.63,-87.21C72.78,-75.06 62.01,-58.43 53.09,-44.63"/>
<polygon fill="#00cd00" stroke="#00cd00" points="55.9,-42.54 47.53,-36.05 50.03,-46.35 55.9,-42.54"/>
<text text-anchor="middle" x="89" y="-57.8" font-family="Times,serif" font-size="14.00" fill="#7f7f7f">Name</text>
</g>
<!-- Transactional -->
<g id="node3" class="node">
<title>Transactional</title>
<polygon fill="#1a1a1a" stroke="#00cd00" points="204,-36 91,-36 91,0 204,0 204,-36"/>
<text text-anchor="middle" x="147.5" y="-14.3" font-family="Times,serif" font-size="14.00" fill="white">Transactional</text>
</g>
<!-- Account&#45;&gt;Transactional -->
<g id="edge2" class="edge">
<title>Account&#45;&gt;Transactional</title>
<path fill="none" stroke="#00cd00" d="M102.56,-87.21C110.56,-75.06 121.52,-58.43 130.61,-44.63"/>
<polygon fill="#00cd00" stroke="#00cd00" points="133.69,-46.33 136.27,-36.05 127.84,-42.47 133.69,-46.33"/>
<text text-anchor="middle" x="140" y="-57.8" font-family="Times,serif" font-size="14.00" fill="#7f7f7f">Type</text>
</g>
</g>
</svg>
