<?xml version="1.0" encoding="UTF-8" standalone="no"?>
<!DOCTYPE svg PUBLIC "-//W3C//DTD SVG 1.1//EN"
 "http://www.w3.org/Graphics/SVG/1.1/DTD/svg11.dtd">
<!-- Generated by graphviz version 2.50.0 (0)
 -->
<!-- Pages: 1 -->
<svg width="370pt" height="218pt"
 viewBox="0.00 0.00 370.00 218.00" xmlns="http://www.w3.org/2000/svg" xmlns:xlink="http://www.w3.org/1999/xlink">
<g id="graph0" class="graph" transform="scale(1 1) rotate(0) translate(4 214)">
<!-- Account -->
<g id="node1" class="node">
<title>Account</title>
<ellipse fill="#1a1a1a" stroke="#00cd00" cx="73" cy="-192" rx="48.19" ry="18"/>
<text text-anchor="middle" x="73" y="-188.3" font-family="Times,serif" font-size="14.00" fill="white">Account</text>
</g>
<!-- Transaction -->
<g id="node2" class="node">
<title>Transaction</title>
<ellipse fill="#1a1a1a" stroke="#00cd00" cx="149" cy="-105" rx="65.79" ry="18"/>
<text text-anchor="middle" x="149" y="-101.3" font-family="Times,serif" font-size="14.00" fill="white">Transaction</text>
</g>
<!-- Account&#45;&gt;Transaction -->
<g id="edge1" class="edge">
<title>Account&#45;&gt;Transaction</title>
<path fill="none" stroke="#00cd00" d="M87.65,-174.61C98.94,-161.99 114.7,-144.36 127.42,-130.13"/>
<polygon fill="#00cd00" stroke="#00cd00" points="130.08,-132.42 134.13,-122.63 124.86,-127.75 130.08,-132.42"/>
<text text-anchor="middle" x="150.5" y="-144.8" font-family="Times,serif" font-size="14.00" fill="#7f7f7f">HasEntry</text>
</g>
<!-- AET.Time -->
<g id="node3" class="node">
<title>AET.Time</title>
<polygon fill="#1a1a1a" stroke="#00cd00" points="84,-36 0,-36 0,0 84,0 84,-36"/>
<text text-anchor="middle" x="42" y="-14.3" font-family="Times,serif" font-size="14.00" fill="white">AET.Time</text>
</g>
<!-- Transaction&#45;&gt;AET.Time -->
<g id="edge2" class="edge">
<title>Transaction&#45;&gt;AET.Time</title>
<path fill="none" stroke="#00cd00" d="M128.62,-87.81C112.43,-74.95 89.56,-56.78 71.38,-42.34"/>
<polygon fill="#00cd00" stroke="#00cd00" points="73.41,-39.48 63.4,-36 69.05,-44.96 73.41,-39.48"/>
<text text-anchor="middle" x="119" y="-57.8" font-family="Times,serif" font-size="14.00" fill="#7f7f7f">Date</text>
</g>
<!-- AET.String -->
<g id="node4" class="node">
<title>AET.String</title>
<polygon fill="#1a1a1a" stroke="#00cd00" points="196,-36 102,-36 102,0 196,0 196,-36"/>
<text text-anchor="middle" x="149" y="-14.3" font-family="Times,serif" font-size="14.00" fill="white">AET.String</text>
</g>
<!-- Transaction&#45;&gt;AET.String -->
<g id="edge3" class="edge">
<title>Transaction&#45;&gt;AET.String</title>
<path fill="none" stroke="#00cd00" d="M149,-86.8C149,-75.16 149,-59.55 149,-46.24"/>
<polygon fill="#00cd00" stroke="#00cd00" points="152.5,-46.18 149,-36.18 145.5,-46.18 152.5,-46.18"/>
<text text-anchor="middle" x="190.5" y="-57.8" font-family="Times,serif" font-size="14.00" fill="#7f7f7f">Description</text>
</g>
<!-- AET.QuantityFloat -->
<g id="node5" class="node">
<title>AET.QuantityFloat</title>
<polygon fill="#1a1a1a" stroke="#00cd00" points="362,-36 214,-36 214,0 362,0 362,-36"/>
<text text-anchor="middle" x="288" y="-14.3" font-family="Times,serif" font-size="14.00" fill="white">AET.QuantityFloat</text>
</g>
<!-- Transaction&#45;&gt;AET.QuantityFloat -->
<g id="edge4" class="edge">
<title>Transaction&#45;&gt;AET.QuantityFloat</title>
<path fill="none" stroke="#00cd00" d="M190.43,-91.03C205.41,-85.41 222.06,-78.02 236,-69 247.01,-61.88 257.71,-52.22 266.51,-43.29"/>
<polygon fill="#00cd00" stroke="#00cd00" points="269.06,-45.69 273.43,-36.03 264,-40.86 269.06,-45.69"/>
<text text-anchor="middle" x="282" y="-57.8" font-family="Times,serif" font-size="14.00" fill="#7f7f7f">Amount</text>
</g>
<!-- BudgetCategory -->
<g id="node6" class="node">
<title>BudgetCategory</title>
<ellipse fill="#1a1a1a" stroke="#00cd00" cx="226" cy="-192" rx="87.18" ry="18"/>
<text text-anchor="middle" x="226" y="-188.3" font-family="Times,serif" font-size="14.00" fill="white">BudgetCategory</text>
</g>
<!-- BudgetCategory&#45;&gt;Transaction -->
<g id="edge5" class="edge">
<title>BudgetCategory&#45;&gt;Transaction</title>
<path fill="none" stroke="#00cd00" d="M214.85,-174.09C207.91,-164.06 198.51,-151.32 189,-141 185.25,-136.93 181.06,-132.84 176.84,-128.97"/>
<polygon fill="#00cd00" stroke="#00cd00" points="179.11,-126.31 169.31,-122.29 174.47,-131.55 179.11,-126.31"/>
<text text-anchor="middle" x="260.5" y="-144.8" font-family="Times,serif" font-size="14.00" fill="#7f7f7f">HasContribution</text>
</g>
</g>
</svg>
