<?xml version="1.0" encoding="UTF-8" standalone="no"?>
<!DOCTYPE svg PUBLIC "-//W3C//DTD SVG 1.1//EN"
 "http://www.w3.org/Graphics/SVG/1.1/DTD/svg11.dtd">
<!-- Generated by graphviz version 2.50.0 (0)
 -->
<!-- Pages: 1 -->
<svg width="708pt" height="149pt"
 viewBox="0.00 0.00 708.07 149.00" xmlns="http://www.w3.org/2000/svg" xmlns:xlink="http://www.w3.org/1999/xlink">
<g id="graph0" class="graph" transform="scale(1 1) rotate(0) translate(4 145)">
<!-- acc -->
<g id="node1" class="node">
<title>acc</title>
<ellipse fill="#1a1a1a" stroke="#00cd00" cx="48.1" cy="-32" rx="48.19" ry="18"/>
<text text-anchor="middle" x="48.1" y="-28.3" font-family="Times,serif" font-size="14.00" fill="white">Account</text>
</g>
<!-- rel_a -->
<g id="node2" class="node">
<title>rel_a</title>
<ellipse fill="#1a1a1a" stroke="white" cx="202.74" cy="-72" rx="69.59" ry="18"/>
<text text-anchor="middle" x="202.74" y="-68.3" font-family="Times,serif" font-size="14.00" fill="white">RT.HasEntry</text>
</g>
<!-- acc&#45;&gt;rel_a -->
<g id="edge1" class="edge">
<title>acc&#45;&gt;rel_a</title>
<path fill="none" stroke="#00cd00" d="M88.01,-42.2C107.88,-47.41 132.25,-53.79 153.33,-59.31"/>
</g>
<!-- trans_b -->
<g id="node5" class="node">
<title>trans_b</title>
<ellipse fill="#1a1a1a" stroke="#00cd00" cx="384.67" cy="-18" rx="75.29" ry="18"/>
<text text-anchor="middle" x="384.67" y="-14.3" font-family="Times,serif" font-size="14.00" fill="white">Transaction B</text>
</g>
<!-- acc&#45;&gt;trans_b -->
<g id="edge4" class="edge">
<title>acc&#45;&gt;trans_b</title>
<path fill="none" stroke="#00cd00" d="M95.97,-30.04C148.8,-27.83 235.73,-24.19 300.23,-21.49"/>
<polygon fill="#00cd00" stroke="#00cd00" points="300.53,-24.98 310.38,-21.07 300.24,-17.99 300.53,-24.98"/>
<text text-anchor="middle" x="202.74" y="-31.8" font-family="Times,serif" font-size="14.00" fill="#7f7f7f">RT.HasEntry</text>
</g>
<!-- trans_a -->
<g id="node3" class="node">
<title>trans_a</title>
<ellipse fill="#1a1a1a" stroke="#00cd00" cx="384.67" cy="-123" rx="74.99" ry="18"/>
<text text-anchor="middle" x="384.67" y="-119.3" font-family="Times,serif" font-size="14.00" fill="white">Transaction A</text>
</g>
<!-- rel_a&#45;&gt;trans_a -->
<g id="edge2" class="edge">
<title>rel_a&#45;&gt;trans_a</title>
<path fill="none" stroke="#00cd00" d="M250.54,-85.27C273.51,-91.78 301.41,-99.68 325.71,-106.57"/>
<polygon fill="#00cd00" stroke="#00cd00" points="324.96,-110 335.53,-109.36 326.87,-103.26 324.96,-110"/>
</g>
<!-- amount_a -->
<g id="node4" class="node">
<title>amount_a</title>
<polygon fill="darkgreen" stroke="#00cd00" points="700.07,-90 552.07,-90 552.07,-54 700.07,-54 700.07,-90"/>
<text text-anchor="middle" x="626.07" y="-68.3" font-family="Times,serif" font-size="14.00" fill="white">AET.QuantityFloat</text>
</g>
<!-- rel_a&#45;&gt;amount_a -->
<g id="edge3" class="edge">
<title>rel_a&#45;&gt;amount_a</title>
<path fill="none" stroke="#00cd00" d="M272.37,-72C345.9,-72 462.64,-72 541.48,-72"/>
<polygon fill="#00cd00" stroke="#00cd00" points="541.86,-75.5 551.86,-72 541.86,-68.5 541.86,-75.5"/>
<text text-anchor="middle" x="384.67" y="-75.8" font-family="Times,serif" font-size="14.00" fill="#7f7f7f">Amount</text>
</g>
<!-- amount_b -->
<g id="node6" class="node">
<title>amount_b</title>
<polygon fill="darkgreen" stroke="#00cd00" points="700.07,-36 552.07,-36 552.07,0 700.07,0 700.07,-36"/>
<text text-anchor="middle" x="626.07" y="-14.3" font-family="Times,serif" font-size="14.00" fill="white">AET.QuantityFloat</text>
</g>
<!-- trans_b&#45;&gt;amount_b -->
<g id="edge5" class="edge">
<title>trans_b&#45;&gt;amount_b</title>
<path fill="none" stroke="#00cd00" d="M460.11,-18C486.03,-18 515.27,-18 541.86,-18"/>
<polygon fill="#00cd00" stroke="#00cd00" points="541.91,-21.5 551.91,-18 541.91,-14.5 541.91,-21.5"/>
<text text-anchor="middle" x="506.07" y="-21.8" font-family="Times,serif" font-size="14.00" fill="#7f7f7f">Amount</text>
</g>
</g>
</svg>
