<?xml version="1.0" encoding="UTF-8" standalone="no"?>
<!DOCTYPE svg PUBLIC "-//W3C//DTD SVG 1.1//EN"
 "http://www.w3.org/Graphics/SVG/1.1/DTD/svg11.dtd">
<!-- Generated by graphviz version 2.50.0 (0)
 -->
<!-- Pages: 1 -->
<svg width="477pt" height="242pt"
 viewBox="0.00 0.00 476.98 242.00" xmlns="http://www.w3.org/2000/svg" xmlns:xlink="http://www.w3.org/1999/xlink">
<g id="graph0" class="graph" transform="scale(1 1) rotate(0) translate(4 238)">
<!-- acc_a -->
<g id="node1" class="node">
<title>acc_a</title>
<ellipse fill="#1a1a1a" stroke="#00cd00" cx="57.84" cy="-216" rx="57.39" ry="18"/>
<text text-anchor="middle" x="57.84" y="-212.3" font-family="Times,serif" font-size="14.00" fill="white">Account A</text>
</g>
<!-- rel_a -->
<g id="node2" class="node">
<title>rel_a</title>
<ellipse fill="#1a1a1a" stroke="#00cd00" cx="226.69" cy="-216" rx="69.59" ry="18"/>
<text text-anchor="middle" x="226.69" y="-212.3" font-family="Times,serif" font-size="14.00" fill="white">RT.HasEntry</text>
</g>
<!-- acc_a&#45;&gt;rel_a -->
<g id="edge1" class="edge">
<title>acc_a&#45;&gt;rel_a</title>
<path fill="none" stroke="#00cd00" d="M115.33,-216C128.76,-216 143.22,-216 157.12,-216"/>
</g>
<!-- trans -->
<g id="node3" class="node">
<title>trans</title>
<ellipse fill="#1a1a1a" stroke="#00cd00" cx="403.33" cy="-152" rx="65.79" ry="18"/>
<text text-anchor="middle" x="403.33" y="-148.3" font-family="Times,serif" font-size="14.00" fill="white">Transaction</text>
</g>
<!-- rel_a&#45;&gt;trans -->
<g id="edge2" class="edge">
<title>rel_a&#45;&gt;trans</title>
<path fill="none" stroke="#00cd00" d="M267.76,-201.32C293.32,-191.95 326.61,-179.75 353.69,-169.83"/>
<polygon fill="#00cd00" stroke="#00cd00" points="355.17,-173.01 363.36,-166.28 352.76,-166.44 355.17,-173.01"/>
</g>
<!-- amount_a -->
<g id="node4" class="node">
<title>amount_a</title>
<polygon fill="darkgreen" stroke="#00cd00" points="300.69,-162 152.69,-162 152.69,-126 300.69,-126 300.69,-162"/>
<text text-anchor="middle" x="226.69" y="-140.3" font-family="Times,serif" font-size="14.00" fill="white">AET.QuantityFloat</text>
</g>
<!-- rel_a&#45;&gt;amount_a -->
<g id="edge3" class="edge">
<title>rel_a&#45;&gt;amount_a</title>
<path fill="none" stroke="#00cd00" d="M226.69,-197.59C226.69,-189.94 226.69,-180.89 226.69,-172.43"/>
<polygon fill="#00cd00" stroke="#00cd00" points="230.19,-172.17 226.69,-162.17 223.19,-172.17 230.19,-172.17"/>
<text text-anchor="middle" x="216.19" y="-176.3" font-family="Times,serif" font-size="14.00" fill="#7f7f7f">Amount</text>
</g>
<!-- acc_b -->
<g id="node5" class="node">
<title>acc_b</title>
<ellipse fill="#1a1a1a" stroke="#00cd00" cx="57.84" cy="-90" rx="57.69" ry="18"/>
<text text-anchor="middle" x="57.84" y="-86.3" font-family="Times,serif" font-size="14.00" fill="white">Account B</text>
</g>
<!-- rel_b -->
<g id="node6" class="node">
<title>rel_b</title>
<ellipse fill="#1a1a1a" stroke="#00cd00" cx="226.69" cy="-90" rx="69.59" ry="18"/>
<text text-anchor="middle" x="226.69" y="-86.3" font-family="Times,serif" font-size="14.00" fill="white">RT.HasEntry</text>
</g>
<!-- acc_b&#45;&gt;rel_b -->
<g id="edge4" class="edge">
<title>acc_b&#45;&gt;rel_b</title>
<path fill="none" stroke="#00cd00" d="M115.8,-90C129.01,-90 143.22,-90 156.88,-90"/>
</g>
<!-- rel_b&#45;&gt;trans -->
<g id="edge5" class="edge">
<title>rel_b&#45;&gt;trans</title>
<path fill="none" stroke="#00cd00" d="M268.64,-104.54C293.87,-113.49 326.38,-125.03 353.02,-134.49"/>
<polygon fill="#00cd00" stroke="#00cd00" points="351.95,-137.83 362.55,-137.88 354.29,-131.23 351.95,-137.83"/>
</g>
<!-- amount_b -->
<g id="node7" class="node">
<title>amount_b</title>
<polygon fill="darkgreen" stroke="#00cd00" points="300.69,-36 152.69,-36 152.69,0 300.69,0 300.69,-36"/>
<text text-anchor="middle" x="226.69" y="-14.3" font-family="Times,serif" font-size="14.00" fill="white">AET.QuantityFloat</text>
</g>
<!-- rel_b&#45;&gt;amount_b -->
<g id="edge6" class="edge">
<title>rel_b&#45;&gt;amount_b</title>
<path fill="none" stroke="#00cd00" d="M226.69,-71.59C226.69,-63.94 226.69,-54.89 226.69,-46.43"/>
<polygon fill="#00cd00" stroke="#00cd00" points="230.19,-46.17 226.69,-36.17 223.19,-46.17 230.19,-46.17"/>
<text text-anchor="middle" x="216.19" y="-50.3" font-family="Times,serif" font-size="14.00" fill="#7f7f7f">Amount</text>
</g>
</g>
</svg>
